<svg width="23" height="24" viewBox="0 0 23 24" fill="none" xmlns="http://www.w3.org/2000/svg">
<g clip-path="url(#clip0_8103_232485)">
<path d="M15.3332 16.7923V18.709C15.3332 19.2173 15.1312 19.7048 14.7718 20.0643C14.4123 20.4237 13.9248 20.6257 13.4165 20.6257H6.70817C6.19984 20.6257 5.71233 20.4237 5.35288 20.0643C4.99344 19.7048 4.7915 19.2173 4.7915 18.709V9.12565C4.7915 8.61732 4.99344 8.12981 5.35288 7.77036C5.71233 7.41092 6.19984 7.20898 6.70817 7.20898H8.62484" stroke="#FF9900" stroke-width="1.24" stroke-linecap="round" stroke-linejoin="round"/>
<path d="M14.375 3.375V7.20833C14.375 7.4625 14.476 7.70625 14.6557 7.88598C14.8354 8.0657 15.0792 8.16667 15.3333 8.16667H19.1667" stroke="#333333" stroke-width="1.24" stroke-linecap="round" stroke-linejoin="round"/>
<path d="M17.25 16.7917H10.5417C10.0333 16.7917 9.54582 16.5897 9.18638 16.2303C8.82693 15.8708 8.625 15.3833 8.625 14.875V5.29167C8.625 4.78334 8.82693 4.29582 9.18638 3.93638C9.54582 3.57693 10.0333 3.375 10.5417 3.375H14.375L19.1667 8.16667V14.875C19.1667 15.3833 18.9647 15.8708 18.6053 16.2303C18.2458 16.5897 17.7583 16.7917 17.25 16.7917Z" stroke="#333333" stroke-width="1.24" stroke-linecap="round" stroke-linejoin="round"/>
</g>
<defs>
<clipPath id="clip0_8103_232485">
<rect width="23" height="23" fill="white" transform="translate(0 0.5)"/>
</clipPath>
</defs>
</svg>
