<svg width="39" height="16" viewBox="0 0 39 16" fill="none" xmlns="http://www.w3.org/2000/svg">
<path d="M21.9696 0.870442C21.2087 1.26902 20.9253 1.9423 20.9253 3.80225C20.9253 3.80225 21.3106 3.42957 21.882 3.22251C22.2987 3.07157 22.6545 2.84185 22.8604 2.69111C23.5033 2.22016 23.6028 1.61344 23.6028 0.592483C23.6028 0.592483 22.5542 0.564224 21.9696 0.870442Z" fill="#FDFDFD"/>
<path d="M17.4568 1.3063C16.8362 1.85345 16.655 2.72514 16.655 2.72514L14.6006 10.6849L12.8919 4.17046C12.7255 3.47788 12.4253 2.62165 11.9508 2.0427C11.3462 1.30511 10.117 1.25884 9.98606 1.25884C9.8551 1.25884 8.62601 1.30511 8.02136 2.0427C7.54678 2.62165 7.24666 3.47788 7.08026 4.17046L5.37156 10.6849L3.31707 2.72514C3.31707 2.72514 3.1358 1.85345 2.5152 1.3063C1.50892 0.419152 0 0.608888 0 0.608888L3.93422 15.4846C3.93422 15.4846 5.23224 15.578 5.88159 15.247C6.73457 14.8121 7.14062 14.4767 7.65685 12.4527C8.11716 10.6482 9.40376 5.34788 9.52388 4.97067C9.58335 4.78418 9.65858 4.33844 9.98586 4.33844C10.3206 4.33844 10.3895 4.78379 10.4478 4.97067C10.5659 5.34857 11.8547 10.6482 12.3149 12.4527C12.8311 14.4767 13.2372 14.8121 14.0901 15.247C14.7395 15.578 16.0375 15.4846 16.0375 15.4846L19.9717 0.608888C19.9719 0.608888 18.4631 0.419152 17.4568 1.3063Z" fill="#FDFDFD"/>
<path d="M20.9251 15.4845C20.9251 15.4845 21.9178 15.6099 22.5673 15.2789C23.4032 14.8527 23.5952 14.442 23.6026 12.5921V3.57606L23.6014 3.57636V3.03748C23.6014 3.03748 23.3554 3.41793 22.7937 3.73193C22.4332 3.93358 22.0872 4.07015 21.7158 4.24827C21.0936 4.5468 20.925 4.87931 20.925 5.38659V15.4845H20.9251Z" fill="#FDFDFD"/>
<path d="M33.4081 8.08287L38.4 0.658224C38.4 0.658224 36.2931 0.299525 35.2499 1.24919C34.5825 1.8568 33.836 2.94944 33.836 2.94944L31.9993 5.59719C31.9103 5.73484 31.7934 5.8847 31.6074 5.8847C31.4212 5.8847 31.3044 5.73484 31.2154 5.59719L29.3787 2.94944C29.3787 2.94944 28.6322 1.8568 27.9648 1.24919C26.9216 0.299624 24.8147 0.658224 24.8147 0.658224L29.8065 8.08287L24.8278 15.4846C24.8278 15.4846 27.0218 15.7615 28.065 14.8119C28.7325 14.2043 29.3787 13.2163 29.3787 13.2163L31.2154 10.5686C31.3044 10.431 31.4213 10.2811 31.6074 10.2811C31.7935 10.2811 31.9103 10.431 31.9993 10.5686L33.836 13.2163C33.836 13.2163 34.52 14.2043 35.1875 14.8119C36.2307 15.7614 38.3866 15.4846 38.3866 15.4846L33.4081 8.08287Z" fill="#FDFDFD"/>
</svg>
