<svg width="40" height="17" viewBox="0 0 40 17" fill="none" xmlns="http://www.w3.org/2000/svg">
<path d="M22.8849 0.812349C22.0923 1.22753 21.7971 1.92887 21.7971 3.86632C21.7971 3.86632 22.1984 3.47811 22.7937 3.26242C23.2278 3.10518 23.5983 2.8659 23.8128 2.70887C24.4825 2.21831 24.5861 1.5863 24.5861 0.522809C24.5861 0.522809 23.4939 0.493373 22.8849 0.812349Z" fill="#2C2C2C"/>
<path d="M18.1842 1.26648C17.5377 1.83644 17.3489 2.74444 17.3489 2.74444L15.2089 11.0359L13.429 4.24999C13.2557 3.52855 12.943 2.63664 12.4487 2.03356C11.8189 1.26525 10.5385 1.21705 10.4021 1.21705C10.2657 1.21705 8.98541 1.26525 8.35557 2.03356C7.86121 2.63664 7.5486 3.52855 7.37526 4.24999L5.59537 11.0359L3.45527 2.74444C3.45527 2.74444 3.26645 1.83644 2.61999 1.26648C1.57179 0.342376 0 0.540018 0 0.540018L4.09814 16.0355C4.09814 16.0355 5.45024 16.1328 6.12665 15.788C7.01516 15.335 7.43814 14.9856 7.97588 12.8773C8.45536 10.9976 9.79557 5.47646 9.92069 5.08353C9.98264 4.88927 10.061 4.42496 10.4019 4.42496C10.7506 4.42496 10.8223 4.88886 10.8832 5.08353C11.0061 5.47717 12.3486 10.9976 12.828 12.8773C13.3657 14.9856 13.7887 15.335 14.6772 15.788C15.3536 16.1328 16.7057 16.0355 16.7057 16.0355L20.8038 0.540018C20.8041 0.540018 19.2324 0.342376 18.1842 1.26648Z" fill="#2C2C2C"/>
<path d="M21.797 16.0353C21.797 16.0353 22.831 16.166 23.5075 15.8212C24.3783 15.3773 24.5783 14.9494 24.586 13.0224V3.63073L24.5848 3.63104V3.0697C24.5848 3.0697 24.3285 3.46601 23.7434 3.79309C23.3678 4.00314 23.0074 4.1454 22.6206 4.33094C21.9725 4.64192 21.7969 4.98828 21.7969 5.51669V16.0353H21.797Z" fill="#2C2C2C"/>
<path d="M34.8001 8.32528L40 0.591289C40 0.591289 37.8053 0.217646 36.7187 1.20688C36.0234 1.83981 35.2458 2.97797 35.2458 2.97797L33.3326 5.73604C33.2399 5.87942 33.1182 6.03552 32.9243 6.03552C32.7304 6.03552 32.6087 5.87942 32.516 5.73604L30.6028 2.97797C30.6028 2.97797 29.8252 1.83981 29.13 1.20688C28.0433 0.217748 25.8486 0.591289 25.8486 0.591289L31.0484 8.32528L25.8623 16.0354C25.8623 16.0354 28.1477 16.3239 29.2344 15.3347C29.9296 14.7017 30.6028 13.6726 30.6028 13.6726L32.516 10.9146C32.6087 10.7712 32.7305 10.6151 32.9243 10.6151C33.1183 10.6151 33.2399 10.7712 33.3326 10.9146L35.2458 13.6726C35.2458 13.6726 35.9584 14.7017 36.6536 15.3347C37.7403 16.3238 39.986 16.0354 39.986 16.0354L34.8001 8.32528Z" fill="#2C2C2C"/>
</svg>
