<svg width="32" height="37" viewBox="0 0 32 37" fill="none" xmlns="http://www.w3.org/2000/svg">
<path d="M28.0264 7.05409C28.0013 6.87098 27.8413 6.76939 27.7085 6.75833C27.5768 6.74727 24.9954 6.70805 24.9954 6.70805C24.9954 6.70805 22.8366 4.6116 22.6233 4.39833C22.4101 4.18507 21.9936 4.24945 21.8316 4.29774C21.8296 4.29875 21.4262 4.42348 20.7472 4.63373C20.6335 4.26555 20.4665 3.81286 20.2281 3.35816C19.4596 1.89146 18.3339 1.11585 16.9738 1.11384C16.9718 1.11384 16.9707 1.11384 16.9687 1.11384C16.8742 1.11384 16.7806 1.1229 16.6861 1.13094C16.6459 1.08266 16.6056 1.03538 16.5634 0.989099C15.9708 0.355341 15.2113 0.0465078 14.3009 0.073669C12.5445 0.123967 10.7951 1.3925 9.3767 3.64587C8.37877 5.23128 7.61924 7.22312 7.40398 8.76525C5.38699 9.38995 3.97661 9.82652 3.94543 9.83661C2.92738 10.1565 2.89519 10.1877 2.7624 11.1474C2.66382 11.8727 0 32.471 0 32.471L22.3236 36.3319L31.999 33.9266C31.999 33.9266 28.0515 7.23721 28.0264 7.05409ZM19.6296 4.97978C19.1155 5.13873 18.531 5.3198 17.8972 5.51597C17.8842 4.62669 17.7786 3.38935 17.3641 2.32C18.697 2.5725 19.3529 4.08045 19.6296 4.97978ZM16.7293 5.87811C15.5594 6.24024 14.2828 6.63559 13.0022 7.03197C13.3623 5.65278 14.0454 4.27963 14.8844 3.37929C15.1962 3.0443 15.6328 2.67108 16.1499 2.45782C16.6358 3.47183 16.7414 4.90735 16.7293 5.87811ZM14.3361 1.2426C14.7486 1.23355 15.0956 1.32409 15.3924 1.51925C14.9176 1.76571 14.4588 2.11981 14.0283 2.58155C12.9126 3.77866 12.0576 5.63668 11.7166 7.42932C10.6532 7.75826 9.61305 8.08121 8.65537 8.37697C9.26 5.5552 11.625 1.32107 14.3361 1.2426Z" fill="#2C2C2C"/>
<path d="M27.7094 6.75874C27.5777 6.74768 24.9963 6.70846 24.9963 6.70846C24.9963 6.70846 22.8375 4.61201 22.6243 4.39874C22.5448 4.31927 22.4372 4.27802 22.3245 4.26093L22.3255 36.3303L31.9999 33.926C31.9999 33.926 28.0525 7.23762 28.0274 7.0545C28.0022 6.87139 27.8412 6.7698 27.7094 6.75874Z" fill="#2C2C2C"/>
<path d="M16.9617 11.7333L15.838 15.9372C15.838 15.9372 14.5846 15.3668 13.0988 15.4604C10.9198 15.5982 10.8966 16.9724 10.9188 17.3174C11.0375 19.1976 15.9838 19.608 16.2615 24.0121C16.4798 27.4767 14.4236 29.8468 11.461 30.0339C7.90489 30.2582 5.94727 28.1608 5.94727 28.1608L6.70075 24.9557C6.70075 24.9557 8.67142 26.4426 10.2488 26.343C11.2789 26.2776 11.6471 25.4396 11.6099 24.8471C11.455 22.3945 7.42704 22.5394 7.17256 18.5095C6.95826 15.1184 9.18553 11.682 14.0997 11.3721C15.9929 11.2504 16.9617 11.7333 16.9617 11.7333Z" fill="#FCBC2D"/>
</svg>
