<svg width="32" height="37" viewBox="0 0 32 37" fill="none" xmlns="http://www.w3.org/2000/svg">
<path d="M28.0264 7.31386C28.0013 7.13075 27.8413 7.02916 27.7085 7.0181C27.5768 7.00704 24.9954 6.96782 24.9954 6.96782C24.9954 6.96782 22.8366 4.87137 22.6233 4.6581C22.4101 4.44484 21.9936 4.50922 21.8316 4.5575C21.8296 4.55851 21.4262 4.68325 20.7472 4.8935C20.6335 4.52531 20.4665 4.07262 20.2281 3.61792C19.4596 2.15122 18.3339 1.37562 16.9738 1.37361C16.9718 1.37361 16.9707 1.37361 16.9687 1.37361C16.8742 1.37361 16.7806 1.38266 16.6861 1.39071C16.6459 1.34242 16.6056 1.29514 16.5634 1.24886C15.9708 0.615106 15.2113 0.306273 14.3009 0.333435C12.5445 0.383733 10.7951 1.65226 9.3767 3.90563C8.37877 5.49104 7.61924 7.48289 7.40398 9.02502C5.38699 9.64972 3.97661 10.0863 3.94543 10.0964C2.92738 10.4162 2.89519 10.4474 2.7624 11.4072C2.66382 12.1324 0 32.7307 0 32.7307L22.3236 36.5916L31.999 34.1863C31.999 34.1863 28.0515 7.49697 28.0264 7.31386ZM19.6296 5.23955C19.1155 5.39849 18.531 5.57957 17.8972 5.77574C17.8842 4.88646 17.7786 3.64911 17.3641 2.57976C18.697 2.83226 19.3529 4.34021 19.6296 5.23955ZM16.7293 6.13788C15.5594 6.50001 14.2828 6.89536 13.0022 7.29174C13.3623 5.91254 14.0454 4.5394 14.8844 3.63905C15.1962 3.30407 15.6328 2.93085 16.1499 2.71758C16.6358 3.7316 16.7414 5.16712 16.7293 6.13788ZM14.3361 1.50237C14.7486 1.49332 15.0956 1.58386 15.3924 1.77901C14.9176 2.02548 14.4588 2.37958 14.0283 2.84132C12.9126 4.03842 12.0576 5.89645 11.7166 7.68909C10.6532 8.01802 9.61305 8.34098 8.65537 8.63674C9.26 5.81497 11.625 1.58084 14.3361 1.50237Z" fill="#95BF47"/>
<path d="M27.7094 7.01851C27.5777 7.00745 24.9963 6.96823 24.9963 6.96823C24.9963 6.96823 22.8375 4.87177 22.6243 4.65851C22.5448 4.57903 22.4372 4.53779 22.3245 4.52069L22.3255 36.59L31.9999 34.1858C31.9999 34.1858 28.0525 7.49738 28.0274 7.31427C28.0022 7.13116 27.8412 7.02957 27.7094 7.01851Z" fill="#5E8E3E"/>
<path d="M16.9617 11.9931L15.838 16.197C15.838 16.197 14.5846 15.6266 13.0988 15.7202C10.9198 15.858 10.8966 17.2321 10.9188 17.5772C11.0375 19.4573 15.9838 19.8678 16.2615 24.2719C16.4798 27.7365 14.4236 30.1065 11.461 30.2936C7.90489 30.518 5.94727 28.4205 5.94727 28.4205L6.70075 25.2155C6.70075 25.2155 8.67142 26.7023 10.2488 26.6028C11.2789 26.5374 11.6471 25.6994 11.6099 25.1069C11.455 22.6543 7.42704 22.7992 7.17256 18.7692C6.95826 15.3782 9.18553 11.9418 14.0997 11.6319C15.9929 11.5102 16.9617 11.9931 16.9617 11.9931Z" fill="white"/>
</svg>
