<svg width="32" height="38" viewBox="0 0 32 38" fill="none" xmlns="http://www.w3.org/2000/svg">
<path d="M28.0264 7.79433C28.0013 7.61122 27.8413 7.50963 27.7085 7.49857C27.5768 7.48751 24.9954 7.44829 24.9954 7.44829C24.9954 7.44829 22.8366 5.35184 22.6233 5.13857C22.4101 4.92531 21.9936 4.98968 21.8316 5.03797C21.8296 5.03898 21.4262 5.16372 20.7472 5.37397C20.6335 5.00578 20.4665 4.55309 20.2281 4.09839C19.4596 2.63169 18.3339 1.85609 16.9738 1.85408C16.9718 1.85408 16.9707 1.85408 16.9687 1.85408C16.8742 1.85408 16.7806 1.86313 16.6861 1.87118C16.6459 1.82289 16.6056 1.77561 16.5634 1.72933C15.9708 1.09558 15.2113 0.786742 14.3009 0.813903C12.5445 0.864202 10.7951 2.13273 9.3767 4.3861C8.37877 5.97151 7.61924 7.96336 7.40398 9.50549C5.38699 10.1302 3.97661 10.5668 3.94543 10.5768C2.92738 10.8967 2.89519 10.9279 2.7624 11.8876C2.66382 12.6129 0 33.2112 0 33.2112L22.3236 37.0721L31.999 34.6668C31.999 34.6668 28.0515 7.97744 28.0264 7.79433ZM19.6296 5.72002C19.1155 5.87896 18.531 6.06004 17.8972 6.2562C17.8842 5.36693 17.7786 4.12958 17.3641 3.06023C18.697 3.31273 19.3529 4.82068 19.6296 5.72002ZM16.7293 6.61835C15.5594 6.98048 14.2828 7.37583 13.0022 7.77221C13.3623 6.39301 14.0454 5.01986 14.8844 4.11952C15.1962 3.78453 15.6328 3.41132 16.1499 3.19805C16.6358 4.21207 16.7414 5.64759 16.7293 6.61835ZM14.3361 1.98284C14.7486 1.97379 15.0956 2.06433 15.3924 2.25948C14.9176 2.50595 14.4588 2.86005 14.0283 3.32179C12.9126 4.51889 12.0576 6.37692 11.7166 8.16956C10.6532 8.49849 9.61305 8.82145 8.65537 9.11721C9.26 6.29544 11.625 2.0613 14.3361 1.98284Z" fill="#FDFDFD"/>
<path d="M27.7094 7.49898C27.5777 7.48792 24.9963 7.4487 24.9963 7.4487C24.9963 7.4487 22.8375 5.35224 22.6243 5.13898C22.5448 5.0595 22.4372 5.01826 22.3245 5.00116L22.3255 37.0705L31.9999 34.6662C31.9999 34.6662 28.0525 7.97785 28.0274 7.79474C28.0022 7.61163 27.8412 7.51004 27.7094 7.49898Z" fill="#FDFDFD"/>
<path d="M16.9617 12.4735L15.838 16.6774C15.838 16.6774 14.5846 16.1071 13.0988 16.2006C10.9198 16.3385 10.8966 17.7126 10.9188 18.0577C11.0375 19.9378 15.9838 20.3483 16.2615 24.7524C16.4798 28.2169 14.4236 30.587 11.461 30.7741C7.90489 30.9984 5.94727 28.901 5.94727 28.901L6.70075 25.696C6.70075 25.696 8.67142 27.1828 10.2488 27.0832C11.2789 27.0178 11.6471 26.1799 11.6099 25.5873C11.455 23.1348 7.42704 23.2796 7.17256 19.2497C6.95826 15.8586 9.18553 12.4222 14.0997 12.1124C15.9929 11.9907 16.9617 12.4735 16.9617 12.4735Z" fill="#028970"/>
</svg>
