<svg width="40" height="16" viewBox="0 0 40 16" fill="none" xmlns="http://www.w3.org/2000/svg">
<path d="M22.8849 0.364595C22.0923 0.779777 21.7971 1.48111 21.7971 3.41856C21.7971 3.41856 22.1984 3.03035 22.7937 2.81466C23.2278 2.65743 23.5983 2.41815 23.8128 2.26112C24.4825 1.77055 24.5861 1.13855 24.5861 0.0750554C24.5861 0.0750554 23.4939 0.0456192 22.8849 0.364595Z" fill="#2C2C2C"/>
<path d="M18.1842 0.81873C17.5377 1.38868 17.3489 2.29669 17.3489 2.29669L15.2089 10.5881L13.429 3.80223C13.2557 3.08079 12.943 2.18889 12.4487 1.58581C11.8189 0.817498 10.5385 0.769293 10.4021 0.769293C10.2657 0.769293 8.98541 0.817498 8.35557 1.58581C7.86121 2.18889 7.5486 3.08079 7.37526 3.80223L5.59537 10.5881L3.45527 2.29669C3.45527 2.29669 3.26645 1.38868 2.61999 0.81873C1.57179 -0.105378 0 0.0922636 0 0.0922636L4.09814 15.5877C4.09814 15.5877 5.45024 15.6851 6.12665 15.3402C7.01516 14.8872 7.43814 14.5379 7.97588 12.4296C8.45536 10.5499 9.79557 5.0287 9.92069 4.63578C9.98264 4.44152 10.061 3.97721 10.4019 3.97721C10.7506 3.97721 10.8223 4.44111 10.8832 4.63578C11.0061 5.02942 12.3486 10.5499 12.828 12.4296C13.3657 14.5379 13.7887 14.8872 14.6772 15.3402C15.3536 15.6851 16.7057 15.5877 16.7057 15.5877L20.8038 0.0922636C20.8041 0.0922636 19.2324 -0.105378 18.1842 0.81873Z" fill="#2C2C2C"/>
<path d="M21.797 15.5876C21.797 15.5876 22.831 15.7182 23.5075 15.3734C24.3783 14.9295 24.5783 14.5016 24.586 12.5746V3.18298L24.5848 3.18329V2.62195C24.5848 2.62195 24.3285 3.01826 23.7434 3.34534C23.3678 3.55539 23.0074 3.69765 22.6206 3.88319C21.9725 4.19416 21.7969 4.54052 21.7969 5.06894V15.5876H21.797Z" fill="#2C2C2C"/>
<path d="M34.8001 7.87753L40 0.143535C40 0.143535 37.8053 -0.230108 36.7187 0.759128C36.0234 1.39205 35.2458 2.53021 35.2458 2.53021L33.3326 5.28828C33.2399 5.43167 33.1182 5.58777 32.9243 5.58777C32.7304 5.58777 32.6087 5.43167 32.516 5.28828L30.6028 2.53021C30.6028 2.53021 29.8252 1.39205 29.13 0.759128C28.0433 -0.230006 25.8486 0.143535 25.8486 0.143535L31.0484 7.87753L25.8623 15.5876C25.8623 15.5876 28.1477 15.8761 29.2344 14.8869C29.9296 14.254 30.6028 13.2248 30.6028 13.2248L32.516 10.4669C32.6087 10.3235 32.7305 10.1674 32.9243 10.1674C33.1183 10.1674 33.2399 10.3235 33.3326 10.4669L35.2458 13.2248C35.2458 13.2248 35.9584 14.254 36.6536 14.8869C37.7403 15.876 39.986 15.5876 39.986 15.5876L34.8001 7.87753Z" fill="#2C2C2C"/>
</svg>
