<svg width="24" height="24" viewBox="0 0 24 24" fill="none" xmlns="http://www.w3.org/2000/svg">
<path d="M2.4 0C1.76348 0 1.15303 0.252856 0.702944 0.702944C0.252856 1.15303 0 1.76348 0 2.4V12H2.4V7.2H4.8V12H7.2V2.4C7.2 1.76348 6.94714 1.15303 6.49706 0.702944C6.04697 0.252856 5.43652 0 4.8 0H2.4ZM2.4 2.4H4.8V4.8H2.4V2.4ZM24 16.2V14.4C24 13.7635 23.7471 13.153 23.2971 12.7029C22.847 12.2529 22.2365 12 21.6 12H16.8V24H21.6C22.2365 24 22.847 23.7471 23.2971 23.2971C23.7471 22.847 24 22.2365 24 21.6V19.8C23.9879 19.3264 23.7943 18.8756 23.4593 18.5407C23.1244 18.2057 22.6736 18.0121 22.2 18C22.6736 17.9879 23.1244 17.7943 23.4593 17.4593C23.7943 17.1244 23.9879 16.6736 24 16.2ZM21.6 21.6H19.2V19.2H21.6V21.6ZM21.6 16.8H19.2V14.4H21.6V16.8ZM4.548 23.532L2.652 22.068L19.452 0.468L21.348 1.932L4.548 23.532Z" fill="#2C2C2C"/>
</svg>
