<svg width="92" height="29" viewBox="0 0 92 29" fill="none" xmlns="http://www.w3.org/2000/svg">
<g clip-path="url(#clip0_1869_53690)">
<path d="M1.53333 14.0881L9.33309 0.613342H24.9855L13.1147 14.1067L1.53333 14.0881Z" fill="white"/>
<path d="M24.9888 27.5599L9.54797 27.6001L1.53345 14.0882L19.2339 17.6029L24.9888 27.5599Z" fill="white"/>
<path d="M24.9856 0.613403L32.8134 14.0727L24.9887 27.5599L19.1964 10.592L24.9856 0.613403Z" fill="white"/>
</g>
<g clip-path="url(#clip1_1869_53690)">
<path d="M40.4224 18.2347C40.299 19.0201 40.2161 19.8113 40.174 20.6053C40.174 23.4051 41.4865 24.7483 44.1606 24.7483C44.8807 24.7673 45.6006 24.7066 46.3073 24.5674L46.7918 21.7093C46.2885 21.8778 45.7698 21.9959 45.2432 22.0619C43.8754 22.0619 43.4216 21.5375 43.4216 20.3201C43.442 19.6821 43.5024 19.0461 43.6025 18.4157L44.5501 12.8374H48.0492L48.4356 10.0774H44.9764L45.7124 5.43139H42.4249L40.4224 18.2347ZM59.129 24.7269H62.8673L68.786 10.0866H65.5384L62.4717 18.0599C62.1405 18.9462 61.6161 20.3845 61.3708 21.2585H61.2849C61.2829 19.9677 61.2133 18.6779 61.0764 17.3945L60.2944 10.0866H57.2829L54.2622 18.0599C53.8636 19.1547 53.4097 20.4703 53.1705 21.3167H53.1061C53.1061 20.2894 53.011 19.0014 52.9252 17.9066L52.2873 10.0866H49.1808L50.5209 24.7269H54.2622L56.9916 17.9955C57.3228 17.1399 57.8932 15.2846 58.2366 14.0641H58.2918C58.2918 15.2907 58.3869 16.7106 58.4727 17.8146L59.129 24.7269ZM70.948 10.0467L68.6296 24.7269H71.8894L74.1956 10.0467H70.948ZM71.365 6.72552H74.9009L75.413 3.37366H71.917L71.365 6.72552ZM84.7234 24.7269H88.3421C86.6125 21.8718 84.9412 19.0167 83.1686 16.1402L89.8172 10.0866H85.7232L80.059 15.4349L81.9634 3.37672H78.7526L75.3793 24.7269H78.6023L79.4273 19.4246L80.8962 18.1274L84.7234 24.7269Z" fill="white"/>
</g>
<defs>
<clipPath id="clip0_1869_53690">
<rect width="31.28" height="26.9867" fill="white" transform="translate(1.53333 0.613342)"/>
</clipPath>
<clipPath id="clip1_1869_53690">
<rect width="49.68" height="21.4667" fill="white" transform="translate(40.1735 3.37338)"/>
</clipPath>
</defs>
</svg>
