<svg width="24" height="24" viewBox="0 0 24 24" fill="none" xmlns="http://www.w3.org/2000/svg">
<path d="M21.3333 2.40098H15.76C15.2 1.00898 13.7333 0.000976562 12 0.000976562C10.2667 0.000976562 8.8 1.00898 8.24 2.40098H2.66667C2.48 2.40098 2.30667 2.41298 2.13333 2.44898C1.70869 2.52916 1.31205 2.70104 0.977588 2.94979C0.643121 3.19855 0.380843 3.51675 0.213333 3.87698C0.0800001 4.15298 0 4.46498 0 4.80098V21.601C0 21.925 0.0800001 22.249 0.213333 22.537C0.346667 22.825 0.546667 23.077 0.786667 23.305C1.14667 23.629 1.61333 23.869 2.13333 23.965C2.30667 23.989 2.48 24.001 2.66667 24.001H21.3333C22.8 24.001 24 22.921 24 21.601V4.80098C24 3.48098 22.8 2.40098 21.3333 2.40098ZM10.6667 15.805L8.78667 17.509L4 13.201L8.78667 8.89298L10.6667 10.597L7.77333 13.201L10.6667 15.805ZM12 3.90098C11.4533 3.90098 11 3.49298 11 3.00098C11 2.50898 11.4533 2.10098 12 2.10098C12.5467 2.10098 13 2.50898 13 3.00098C13 3.49298 12.5467 3.90098 12 3.90098ZM15.2133 17.509L13.3333 15.805L16.2267 13.201L13.3333 10.597L15.2133 8.89298L20 13.201L15.2133 17.509Z" fill="#2C2C2C"/>
</svg>
