<svg width="22" height="24" viewBox="0 0 22 24" fill="none" xmlns="http://www.w3.org/2000/svg">
<path d="M9.75439 0.000976872C9.28891 0.000732842 8.8348 0.144868 8.45466 0.413519C8.07452 0.682169 7.78706 1.06211 7.63189 1.50098H5.25439C4.65766 1.50098 4.08536 1.73803 3.6634 2.15999C3.24145 2.58194 3.00439 3.15424 3.00439 3.75098V9.38498C4.26345 8.93931 5.62641 8.87717 6.92079 9.20643C8.21517 9.53569 9.38278 10.2415 10.2758 11.2347C11.1689 12.2278 11.7473 13.4635 11.9378 14.7854C12.1282 16.1074 11.9223 17.4561 11.3459 18.661L14.3459 21.661C14.6462 21.9612 14.8554 22.3402 14.9494 22.7543C15.0433 23.1684 15.0182 23.6006 14.8769 24.001H18.7544C19.3511 24.001 19.9234 23.7639 20.3454 23.342C20.7673 22.92 21.0044 22.3477 21.0044 21.751V3.75098C21.0044 3.15424 20.7673 2.58194 20.3454 2.15999C19.9234 1.73803 19.3511 1.50098 18.7544 1.50098H16.3769C16.2217 1.06211 15.9343 0.682169 15.5541 0.413519C15.174 0.144868 14.7199 0.000732842 14.2544 0.000976872H9.75439ZM14.2544 1.50098C14.4533 1.50098 14.6441 1.57999 14.7847 1.72065C14.9254 1.8613 15.0044 2.05206 15.0044 2.25098C15.0044 2.44989 14.9254 2.64065 14.7847 2.78131C14.6441 2.92196 14.4533 3.00098 14.2544 3.00098H9.75439C9.55548 3.00098 9.36472 2.92196 9.22406 2.78131C9.08341 2.64065 9.00439 2.44989 9.00439 2.25098C9.00439 2.05206 9.08341 1.8613 9.22406 1.72065C9.36472 1.57999 9.55548 1.50098 9.75439 1.50098H14.2544ZM9.4589 18.895C10.2538 17.832 10.6165 16.5074 10.4741 15.1877C10.3317 13.8681 9.69472 12.6513 8.69137 11.7824C7.68803 10.9134 6.39279 10.4568 5.06632 10.5043C3.73986 10.5519 2.48064 11.1001 1.54209 12.0387C0.603534 12.9772 0.0553169 14.2364 0.00776742 15.5629C-0.039782 16.8894 0.416865 18.1846 1.28581 19.188C2.15475 20.1913 3.37148 20.8283 4.69114 20.9707C6.01079 21.1131 7.33541 20.7503 8.39839 19.9555L12.2234 23.7805C12.364 23.9213 12.5548 24.0005 12.7539 24.0006C12.9529 24.0008 13.1438 23.9219 13.2846 23.7812C13.4255 23.6406 13.5047 23.4498 13.5048 23.2508C13.505 23.0517 13.426 22.8608 13.2854 22.72L9.46039 18.895H9.4589ZM5.25439 19.501C4.25983 19.501 3.30601 19.1059 2.60274 18.4026C1.89948 17.6994 1.50439 16.7455 1.50439 15.751C1.50439 14.7564 1.89948 13.8026 2.60274 13.0993C3.30601 12.3961 4.25983 12.001 5.25439 12.001C6.24896 12.001 7.20278 12.3961 7.90604 13.0993C8.60931 13.8026 9.00439 14.7564 9.00439 15.751C9.00439 16.7455 8.60931 17.6994 7.90604 18.4026C7.20278 19.1059 6.24896 19.501 5.25439 19.501Z" fill="#2C2C2C"/>
</svg>
