<svg width="24" height="24" viewBox="0 0 24 24" fill="none" xmlns="http://www.w3.org/2000/svg">
<path d="M23.9393 10.8074C21.7914 10.7715 19.4995 8.47069 20.7234 5.75049C17.1475 6.94882 13.7996 3.84515 14.4956 0.28613C5.93983 -1.51136 0 5.52281 0 12.0177C0 18.6325 5.37585 24.001 11.9997 24.001C19.0675 24.001 24.6473 17.9135 23.9393 10.8074ZM7.79978 15.6127C6.80381 15.6127 5.99983 14.8098 5.99983 13.8152C5.99983 12.8206 6.80381 12.0177 7.79978 12.0177C8.79575 12.0177 9.59973 12.8206 9.59973 13.8152C9.59973 14.8098 8.79575 15.6127 7.79978 15.6127ZM10.1997 9.62108C9.20374 9.62108 8.39976 8.8182 8.39976 7.82359C8.39976 6.82898 9.20374 6.02611 10.1997 6.02611C11.1957 6.02611 11.9997 6.82898 11.9997 7.82359C11.9997 8.8182 11.1957 9.62108 10.1997 9.62108ZM15.5996 16.811C14.9396 16.811 14.3996 16.2718 14.3996 15.6127C14.3996 14.9536 14.9396 14.4144 15.5996 14.4144C16.2595 14.4144 16.7995 14.9536 16.7995 15.6127C16.7995 16.2718 16.2595 16.811 15.5996 16.811Z" fill="#2C2C2C"/>
</svg>
