<svg width="24" height="22" viewBox="0 0 24 22" fill="none" xmlns="http://www.w3.org/2000/svg">
<path d="M17.2307 10.2061C16.0556 10.4123 14.8055 10.0514 13.897 9.11465L12.3094 7.47754C11.6843 6.83301 11.3343 5.96504 11.3343 5.0541V4.53418L8.0132 2.66504C7.79234 2.54043 7.65483 2.29551 7.66733 2.0334C7.67983 1.77129 7.82985 1.53926 8.0632 1.43184L10.03 0.529492C10.7968 0.181445 11.626 0.000976562 12.4677 0.000976562H13.222C14.7513 0.000976562 16.2222 0.602539 17.3348 1.68105L19.1933 3.48574C20.2018 4.46543 20.5768 5.8791 20.3018 7.18106L20.9602 7.86426L21.2935 7.52051C21.6852 7.1166 22.3186 7.1166 22.7061 7.52051L23.7062 8.55176C24.0979 8.95566 24.0979 9.60879 23.7062 10.0084L20.0392 13.7896C19.6475 14.1936 19.0142 14.1936 18.6266 13.7896L17.6265 12.7584C17.2348 12.3545 17.2348 11.7014 17.6265 11.3018L17.9599 10.958L17.2307 10.2061ZM1.14177 16.2045L10.8718 7.84707C11.0176 8.05762 11.1843 8.25957 11.3635 8.44863L12.9511 10.0857C13.2011 10.3436 13.4678 10.567 13.7512 10.7604L5.62132 20.8236C5.0171 21.5713 4.12119 22.001 3.17944 22.001C1.42096 22.001 0 20.5314 0 18.7225C0 17.7514 0.42087 16.8275 1.14177 16.2045Z" fill="#2C2C2C"/>
</svg>
