<svg width="23" height="24" viewBox="0 0 23 24" fill="none" xmlns="http://www.w3.org/2000/svg">
<path d="M21.6453 20.6025C21.7644 20.7822 21.8537 20.9658 21.9132 21.1533C21.9727 21.3408 22.0024 21.54 22.0024 21.751C22.0024 22.0635 21.9387 22.3564 21.8111 22.6299C21.6836 22.9033 21.5093 23.1416 21.2882 23.3447C21.0672 23.5479 20.8079 23.708 20.5103 23.8252C20.2127 23.9424 19.8938 24.001 19.5537 24.001H2.45114C2.11104 24.001 1.7922 23.9424 1.49462 23.8252C1.19703 23.708 0.937707 23.5479 0.716644 23.3447C0.495582 23.1416 0.321282 22.9033 0.193746 22.6299C0.0662095 22.3564 0.00244141 22.0635 0.00244141 21.751C0.00244141 21.54 0.0279487 21.3408 0.0789632 21.1533C0.129978 20.9658 0.219253 20.7822 0.346789 20.6025L7.6036 8.97754C7.68863 8.86816 7.73114 8.73535 7.73114 8.5791V1.50098H6.09867V0.000976562H15.8935V1.50098H14.261V8.5791C14.261 8.72754 14.3035 8.86426 14.3885 8.98926L21.6453 20.6025ZM9.3636 8.5791C9.3636 8.99316 9.24882 9.37988 9.01925 9.73926L4.7978 16.501H17.1943L12.9729 9.73926C12.7433 9.37988 12.6285 8.99316 12.6285 8.5791V1.50098H9.3636V8.5791Z" fill="#2C2C2C"/>
</svg>
