<svg xmlns="http://www.w3.org/2000/svg" width="107" height="32" viewBox="0 0 107 32" fill="none"><g clip-path="url(#clip0_9_10152)"><path d="M1.77783 16.3345L10.8211 0.711426H28.969L15.2056 16.356L1.77783 16.3345Z" fill="#028970"></path><path d="M28.9726 31.9539L11.0701 32.0005L1.77783 16.3345L22.3002 20.4096L28.9726 31.9539Z" fill="#028970"></path><path d="M28.969 0.711426L38.0447 16.3165L28.9726 31.9539L22.2569 12.2809L28.969 0.711426Z" fill="#028970"></path></g><g clip-path="url(#clip1_9_10152)"><g clip-path="url(#clip2_9_10152)"><path d="M47.5771 21.1414C47.4341 22.0521 47.338 22.9694 47.2891 23.8899C47.2891 27.1361 48.8109 28.6935 51.9114 28.6935C52.7462 28.7155 53.5809 28.6452 54.4003 28.4837L54.9621 25.1699C54.3785 25.3653 53.7771 25.5022 53.1665 25.5788C51.5807 25.5788 51.0545 24.9708 51.0545 23.5592C51.0782 22.8196 51.1483 22.0821 51.2643 21.3512L52.3629 14.8836H56.4198L56.8678 11.6836H52.8572L53.7105 6.29692H49.8989L47.5771 21.1414ZM69.2661 28.6686H73.6004L80.4626 11.6943H76.6973L73.1417 20.9388C72.7577 21.9663 72.1497 23.6339 71.8653 24.6472H71.7657C71.7634 23.1507 71.6827 21.6553 71.5239 20.1672L70.6172 11.6943H67.1257L63.6234 20.9388C63.1612 22.2081 62.635 23.7335 62.3576 24.7148H62.283C62.283 23.5237 62.1728 22.0303 62.0732 20.761L61.3336 11.6943H57.7318L59.2856 28.6686H63.6234L66.7879 20.8641C67.1719 19.8721 67.8332 17.721 68.2315 16.3059H68.2955C68.2955 17.7281 68.4057 19.3743 68.5052 20.6543L69.2661 28.6686ZM82.9693 11.6481L80.2813 28.6686H84.0609L86.7347 11.6481H82.9693ZM83.4529 7.79738H87.5525L88.1462 3.91113H84.0929L83.4529 7.79738ZM98.941 28.6686H103.137C101.131 25.3584 99.1934 22.0481 97.1383 18.713L104.847 11.6943H100.1L93.5329 17.8952L95.7409 3.91469H92.0183L88.1071 28.6686H91.844L92.8005 22.521L94.5036 21.017L98.941 28.6686Z" fill="black"></path></g></g><defs><clipPath id="clip0_9_10152"><rect width="36.2669" height="31.2891" fill="white" transform="translate(1.77777 0.711182)"></rect></clipPath><clipPath id="clip1_9_10152"><rect width="57.6003" height="24.889" fill="white" transform="translate(47.2891 3.91113)"></rect></clipPath><clipPath id="clip2_9_10152"><rect width="57.5576" height="24.7859" fill="white" transform="translate(47.2891 3.91113)"></rect></clipPath></defs></svg>