<svg width="650" height="656" viewBox="0 0 650 656" fill="none" xmlns="http://www.w3.org/2000/svg">
<g opacity="0.25" filter="url(#filter0_dddd_2908_19399)">
<path d="M252.301 443.387L384.801 257.5L649.801 410L448.349 556.939L252.301 443.387Z" fill="#10715F"/>
<path d="M649.351 935.957L387.97 785.835L252.301 443.393L551.932 685.087L649.351 935.957Z" fill="#10715F"/>
<path d="M649.802 410L777.302 747.5L652.302 935L551.284 547.665L649.802 410Z" fill="#10715F"/>
<path d="M598.548 442.502L649.798 410.002L642.298 480.002L598.548 442.502Z" fill="#10715F"/>
<path d="M406.054 580.002L448.554 556.252L428.554 543.752L406.054 580.002Z" fill="#10715F"/>
<path d="M214.803 460.003L254.803 408.753L294.803 551.253L214.803 460.003Z" fill="#10715F"/>
<path d="M349.802 275.002L384.802 257.502L376.052 297.502L349.802 275.002Z" fill="#10715F"/>
<path d="M214.803 460.003L349.803 275.003L611.8 426.709L410.851 574.442L214.803 460.003Z" fill="#028970"/>
<path d="M612.303 957.501L350.472 803.333L214.803 460L514.434 702.586L612.303 957.501Z" fill="#028970"/>
<path d="M611.832 426.714L734.806 752.502L612.306 957.502L513.834 565.183L611.832 426.714Z" fill="#028970"/>
</g>
<defs>
<filter id="filter0_dddd_2908_19399" x="0.702789" y="-335.526" width="1586.35" height="1725.16" filterUnits="userSpaceOnUse" color-interpolation-filters="sRGB">
<feFlood flood-opacity="0" result="BackgroundImageFix"/>
<feColorMatrix in="SourceAlpha" type="matrix" values="0 0 0 0 0 0 0 0 0 0 0 0 0 0 0 0 0 0 127 0" result="hardAlpha"/>
<feOffset dx="13.0256" dy="-3.55244"/>
<feGaussianBlur stdDeviation="14.795"/>
<feColorMatrix type="matrix" values="0 0 0 0 0.545098 0 0 0 0 0.545098 0 0 0 0 0.545098 0 0 0 0.04875 0"/>
<feBlend mode="normal" in2="BackgroundImageFix" result="effect1_dropShadow_2908_19399"/>
<feColorMatrix in="SourceAlpha" type="matrix" values="0 0 0 0 0 0 0 0 0 0 0 0 0 0 0 0 0 0 127 0" result="hardAlpha"/>
<feOffset dx="59.5456" dy="-16.2397"/>
<feGaussianBlur stdDeviation="41.586"/>
<feColorMatrix type="matrix" values="0 0 0 0 0.545098 0 0 0 0 0.545098 0 0 0 0 0.545098 0 0 0 0.075 0"/>
<feBlend mode="normal" in2="effect1_dropShadow_2908_19399" result="effect2_dropShadow_2908_19399"/>
<feColorMatrix in="SourceAlpha" type="matrix" values="0 0 0 0 0 0 0 0 0 0 0 0 0 0 0 0 0 0 127 0" result="hardAlpha"/>
<feOffset dx="150.725" dy="-41.1068"/>
<feGaussianBlur stdDeviation="111.563"/>
<feColorMatrix type="matrix" values="0 0 0 0 0.545098 0 0 0 0 0.545098 0 0 0 0 0.545098 0 0 0 0.10125 0"/>
<feBlend mode="normal" in2="effect2_dropShadow_2908_19399" result="effect3_dropShadow_2908_19399"/>
<feColorMatrix in="SourceAlpha" type="matrix" values="0 0 0 0 0 0 0 0 0 0 0 0 0 0 0 0 0 0 127 0" result="hardAlpha"/>
<feOffset dx="297.728" dy="-81.1986"/>
<feGaussianBlur stdDeviation="255.914"/>
<feColorMatrix type="matrix" values="0 0 0 0 0.545098 0 0 0 0 0.545098 0 0 0 0 0.545098 0 0 0 0.15 0"/>
<feBlend mode="normal" in2="effect3_dropShadow_2908_19399" result="effect4_dropShadow_2908_19399"/>
<feBlend mode="normal" in="SourceGraphic" in2="effect4_dropShadow_2908_19399" result="shape"/>
</filter>
</defs>
</svg>
