<svg width="375" height="489" viewBox="0 0 375 489" fill="none" xmlns="http://www.w3.org/2000/svg">
<g opacity="0.25" filter="url(#filter0_dddd_2908_12090)">
<path d="M140.973 23.6734L70.3065 -75.4664L-71.0268 5.86675L36.4138 84.2342L140.973 23.6734Z" fill="#10715F"/>
<path d="M-70.7869 286.377L68.6162 206.311L140.973 23.676L-18.8304 152.58L-70.7869 286.377Z" fill="#10715F"/>
<path d="M58.9712 96.5343L36.3045 83.8676L46.9712 77.2009L58.9712 96.5343Z" fill="#10715F"/>
<path d="M160.972 32.5347L139.639 5.20142L118.306 81.2014L160.972 32.5347Z" fill="#10715F"/>
<path d="M160.972 32.5347L88.9722 -66.1319L-50.7598 14.7782L56.4128 93.5688L160.972 32.5347Z" fill="#028970"/>
<path d="M-51.0278 297.868L88.6152 215.645L160.972 32.5339L1.16861 161.913L-51.0278 297.868Z" fill="#028970"/>
<path d="M-50.7769 14.7813L-116.363 188.535L-51.0295 297.868L1.48877 88.6314L-50.7769 14.7813Z" fill="#028970"/>
</g>
<defs>
<filter id="filter0_dddd_2908_12090" x="-253.214" y="-391.747" width="845.978" height="919.749" filterUnits="userSpaceOnUse" color-interpolation-filters="sRGB">
<feFlood flood-opacity="0" result="BackgroundImageFix"/>
<feColorMatrix in="SourceAlpha" type="matrix" values="0 0 0 0 0 0 0 0 0 0 0 0 0 0 0 0 0 0 127 0" result="hardAlpha"/>
<feOffset dx="6.94699" dy="-1.89463"/>
<feGaussianBlur stdDeviation="7.89068"/>
<feColorMatrix type="matrix" values="0 0 0 0 0.545098 0 0 0 0 0.545098 0 0 0 0 0.545098 0 0 0 0.04875 0"/>
<feBlend mode="normal" in2="BackgroundImageFix" result="effect1_dropShadow_2908_12090"/>
<feColorMatrix in="SourceAlpha" type="matrix" values="0 0 0 0 0 0 0 0 0 0 0 0 0 0 0 0 0 0 127 0" result="hardAlpha"/>
<feOffset dx="31.7577" dy="-8.66118"/>
<feGaussianBlur stdDeviation="22.1792"/>
<feColorMatrix type="matrix" values="0 0 0 0 0.545098 0 0 0 0 0.545098 0 0 0 0 0.545098 0 0 0 0.075 0"/>
<feBlend mode="normal" in2="effect1_dropShadow_2908_12090" result="effect2_dropShadow_2908_12090"/>
<feColorMatrix in="SourceAlpha" type="matrix" values="0 0 0 0 0 0 0 0 0 0 0 0 0 0 0 0 0 0 127 0" result="hardAlpha"/>
<feOffset dx="80.3866" dy="-21.9236"/>
<feGaussianBlur stdDeviation="59.5"/>
<feColorMatrix type="matrix" values="0 0 0 0 0.545098 0 0 0 0 0.545098 0 0 0 0 0.545098 0 0 0 0.10125 0"/>
<feBlend mode="normal" in2="effect2_dropShadow_2908_12090" result="effect3_dropShadow_2908_12090"/>
<feColorMatrix in="SourceAlpha" type="matrix" values="0 0 0 0 0 0 0 0 0 0 0 0 0 0 0 0 0 0 127 0" result="hardAlpha"/>
<feOffset dx="158.788" dy="-43.3059"/>
<feGaussianBlur stdDeviation="136.487"/>
<feColorMatrix type="matrix" values="0 0 0 0 0.545098 0 0 0 0 0.545098 0 0 0 0 0.545098 0 0 0 0.15 0"/>
<feBlend mode="normal" in2="effect3_dropShadow_2908_12090" result="effect4_dropShadow_2908_12090"/>
<feBlend mode="normal" in="SourceGraphic" in2="effect4_dropShadow_2908_12090" result="shape"/>
</filter>
</defs>
</svg>
