<svg width="1440" height="48" viewBox="0 0 1440 48" fill="none" xmlns="http://www.w3.org/2000/svg">
<path d="M0 48L86.5 44.25C116.5 40.6333 128.5 39.6167 188.5 36C248.5 32.45 300 26.6667 360 25.7833C420 24.8333 480 23.1667 540 18.6667C611 18.6667 660 16.05 720 18.6667C780 21.3833 840 24.8333 900 31.1167C960 37.3333 1020 37.3333 1080 32.8833C1140 28.5 1200 19.5 1260 21.3333C1320 23.1667 1380 35.5 1410 41.7833L1440 48V0H1410C1380 0 1320 0 1260 0C1200 0 1140 0 1080 0C1020 0 960 0 900 0C840 0 780 0 720 0C660 0 600 0 540 0C480 0 420 0 360 0C300 0 240 0 180 0C120 0 60 0 30 0H0V48Z" fill="#FDFDFD"/>
</svg>
