<svg width="1440" height="48" viewBox="0 0 1440 48" fill="none" xmlns="http://www.w3.org/2000/svg">
<path d="M1440 48L1353.5 44.25C1323.5 40.6333 1311.5 39.6167 1251.5 36C1191.5 32.45 1140 26.6667 1080 25.7833C1020 24.8333 960 23.1667 900 18.6667C829 18.6667 780 16.05 720 18.6667C660 21.3833 600 24.8333 540 31.1167C480 37.3333 420 37.3333 360 32.8833C300 28.5 240 19.5 180 21.3333C120 23.1667 60 35.5 30 41.7833L0 48V0H30C60 0 120 0 180 0C240 0 300 0 360 0C420 0 480 0 540 0C600 0 660 0 720 0C780 0 840 0 900 0C960 0 1020 0 1080 0C1140 0 1200 0 1260 0C1320 0 1380 0 1410 0H1440V48Z" fill="#0A1444"/>
</svg>
